<svg width="39" height="39" viewBox="0 0 39 39" fill="none" xmlns="http://www.w3.org/2000/svg">
<path d="M37.6636 22.0572C35.8815 20.2753 32.9818 20.2753 31.2009 22.0561L22.8364 30.4013C22.6588 30.5786 22.5278 30.797 22.4549 31.0371L20.6333 37.0335C20.4717 37.5652 20.6127 38.1425 21.0005 38.5403C21.2912 38.8381 21.686 39 22.0913 39C22.2267 39 22.3636 38.9818 22.4978 38.9444L28.6472 37.2412C28.9001 37.171 29.1308 37.0368 29.3167 36.8514L37.6636 28.5208C39.4454 26.7385 39.4454 23.8392 37.6636 22.0572ZM27.4477 34.4119L24.354 35.2688L25.2595 32.2883L30.903 26.6573L33.0583 28.8121L27.4477 34.4119ZM35.5099 26.3651L35.2147 26.6597L33.0601 24.5051L33.3544 24.2115C33.9483 23.6176 34.9148 23.6176 35.509 24.2115C36.1029 24.8057 36.1029 25.7721 35.5099 26.3651ZM17.4443 37.4763C17.4443 38.3177 16.7623 38.9997 15.9208 38.9997H6.09408C2.734 38.9997 0 36.2662 0 32.906V6.0937C0 2.73354 2.734 0 6.09408 0H24.825C28.1854 0 30.9191 2.73354 30.9191 6.0937V17.8241C30.9191 18.6655 30.2371 19.3475 29.3956 19.3475C28.5541 19.3475 27.8721 18.6655 27.8721 17.8241V6.0937C27.8721 4.41377 26.5051 3.04685 24.825 3.04685H6.09408C4.41404 3.04685 3.04704 4.41377 3.04704 6.0937V32.906C3.04704 34.5859 4.41404 35.9529 6.09408 35.9529H15.9208C16.7623 35.9529 17.4443 36.6348 17.4443 37.4763ZM24.8334 11.3495C24.8334 12.191 24.1513 12.8729 23.3098 12.8729H18.8155C17.974 12.8729 17.2919 12.191 17.2919 11.3495C17.2919 10.5081 17.974 9.8261 18.8155 9.8261H23.3098C24.1513 9.8261 24.8334 10.5081 24.8334 11.3495ZM15.6482 8.20656L12.0923 12.5099C11.6287 13.0815 10.9426 13.4368 10.2079 13.4859C10.1496 13.4898 10.0909 13.4918 10.0326 13.4918C9.35476 13.4918 8.69536 13.2303 8.20171 12.7602C8.18772 12.7471 8.17404 12.7334 8.16035 12.7194L6.52614 11.0413C5.93905 10.4384 5.95214 9.4741 6.5547 8.88705C7.15756 8.29999 8.12196 8.31279 8.70905 8.91561L10.0079 10.2492L13.299 6.26598C13.8349 5.61734 14.7954 5.52599 15.4438 6.06187C16.0925 6.59774 16.1838 7.55792 15.6482 8.20656ZM23.3098 22.242H18.8155C17.974 22.242 17.2919 21.56 17.2919 20.7186C17.2919 19.8771 17.974 19.1952 18.8155 19.1952H23.3098C24.1513 19.1952 24.8334 19.8771 24.8334 20.7186C24.8334 21.56 24.1513 22.242 23.3098 22.242ZM15.6482 17.5661L12.0923 21.8698C11.6287 22.4411 10.9426 22.7966 10.2079 22.8454C10.1496 22.8493 10.0909 22.8514 10.0326 22.8514C9.35447 22.8514 8.69536 22.5898 8.20141 22.1197C8.18862 22.1075 8.17582 22.095 8.16332 22.0822L6.52911 20.4133C5.94053 19.8123 5.95065 18.8476 6.55173 18.2591C7.1528 17.6703 8.1175 17.6804 8.70608 18.2817L10.007 19.6099L13.299 15.6255C13.8349 14.9769 14.7954 14.8858 15.4438 15.4214C16.0925 15.9573 16.1838 16.9175 15.6482 17.5661ZM15.6482 26.7828L12.0923 31.0865C11.6287 31.6578 10.9426 32.0134 10.2079 32.0622C10.1496 32.066 10.0909 32.0681 10.0326 32.0681C9.35447 32.0681 8.69536 31.8066 8.20141 31.3365C8.18862 31.3243 8.17582 31.3118 8.16332 31.299L6.52911 29.63C5.94053 29.029 5.95065 28.0644 6.55173 27.4758C7.1528 26.887 8.1175 26.8971 8.70608 27.4984L10.007 28.8267L13.299 24.8423C13.8349 24.1936 14.7954 24.1026 15.4438 24.6381C16.0925 25.174 16.1838 26.1342 15.6482 26.7828Z" fill="white"/>
</svg>
