<svg width="32" height="32" viewBox="0 0 32 32" fill="none" xmlns="http://www.w3.org/2000/svg">
<path d="M16 0C7.1776 0 0 7.17768 0 16C0 24.8224 7.1776 32 16 32C24.8224 32 32 24.8224 32 16C32 7.17768 24.8224 0 16 0ZM16 29.0909C8.78167 29.0909 2.90909 23.2184 2.90909 16C2.90909 8.78174 8.78167 2.90924 16 2.90924C23.2183 2.90924 29.0909 8.78174 29.0909 16C29.0909 23.2185 23.2183 29.0909 16 29.0909Z" fill="url(#paint0_linear_2572_9614)"/>
<path d="M16 12.6065C15.1967 12.6065 14.5455 13.2578 14.5455 14.0612V23.757C14.5455 24.5603 15.1967 25.2116 16 25.2116C16.8033 25.2116 17.4545 24.5603 17.4545 23.757V14.0612C17.4545 13.2579 16.8033 12.6065 16 12.6065Z" fill="url(#paint1_linear_2572_9614)"/>
<path d="M16 6.78836C15.617 6.78836 15.2426 6.94352 14.9712 7.21408C14.7006 7.48464 14.5455 7.85993 14.5455 8.24298C14.5455 8.62603 14.7006 9.00035 14.9712 9.27188C15.2417 9.54244 15.617 9.6976 16 9.6976C16.383 9.6976 16.7573 9.54244 17.0288 9.27188C17.2993 9.00035 17.4545 8.62603 17.4545 8.24298C17.4545 7.85993 17.2993 7.48464 17.0288 7.21408C16.7573 6.94342 16.383 6.78836 16 6.78836Z" fill="url(#paint2_linear_2572_9614)"/>
<defs>
<linearGradient id="paint0_linear_2572_9614" x1="-13.4564" y1="7" x2="12.6431" y2="57.0943" gradientUnits="userSpaceOnUse">
<stop stop-color="#438EFF"/>
<stop offset="1" stop-color="#FF00F5"/>
</linearGradient>
<linearGradient id="paint1_linear_2572_9614" x1="-13.4564" y1="7" x2="12.6431" y2="57.0943" gradientUnits="userSpaceOnUse">
<stop stop-color="#438EFF"/>
<stop offset="1" stop-color="#FF00F5"/>
</linearGradient>
<linearGradient id="paint2_linear_2572_9614" x1="-13.4564" y1="7" x2="12.6431" y2="57.0943" gradientUnits="userSpaceOnUse">
<stop stop-color="#438EFF"/>
<stop offset="1" stop-color="#FF00F5"/>
</linearGradient>
</defs>
</svg>
